<?xml version="1.0" standalone="no"?>
<!DOCTYPE svg PUBLIC "-//W3C//DTD SVG 20010904//EN"
 "http://www.w3.org/TR/2001/REC-SVG-20010904/DTD/svg10.dtd">
<svg version="1.0" xmlns="http://www.w3.org/2000/svg"
 width="2048.000000pt" height="2048.000000pt" viewBox="0 0 2048.000000 2048.000000"
 preserveAspectRatio="xMidYMid meet">
<metadata>
Created by potrace 1.14, written by Peter Selinger 2001-2017
</metadata>
<g transform="translate(0.000000,2048.000000) scale(0.100000,-0.100000)"
fill="#000000" stroke="none">
<path d="M10545 19478 c-30 -17 -44 -33 -55 -63 -15 -40 -12 -66 12 -101 28
-40 44 -48 155 -74 407 -96 827 -282 1146 -508 304 -214 541 -444 752 -731 86
-116 114 -161 206 -324 65 -116 184 -369 194 -414 2 -10 16 -49 30 -88 38
-105 98 -329 110 -415 3 -25 8 -52 10 -60 2 -8 7 -35 10 -60 3 -25 11 -79 17
-120 16 -104 16 -571 0 -696 -14 -109 -15 -115 -38 -244 -85 -462 -286 -937
-568 -1340 -36 -52 -69 -110 -72 -128 -18 -96 88 -172 167 -119 30 20 198 239
199 259 0 4 21 40 46 80 67 104 195 362 260 523 168 421 254 849 257 1290 1
148 -9 390 -18 405 -1 3 -6 34 -9 70 -7 71 -47 280 -72 375 -8 33 -20 77 -25
98 -17 70 -81 252 -121 347 -55 132 -172 368 -208 421 -16 24 -30 47 -30 51 0
23 -220 324 -319 438 -467 539 -1109 929 -1828 1109 -130 33 -176 37 -208 19z"/>
<path d="M10303 18510 c-63 -38 -63 -143 0 -185 14 -9 76 -29 139 -46 512
-134 936 -402 1251 -791 38 -48 108 -151 185 -273 18 -29 95 -188 130 -270 27
-61 42 -105 81 -230 18 -58 52 -231 66 -340 14 -108 14 -439 0 -530 -62 -411
-174 -708 -398 -1054 -74 -114 -87 -141 -87 -176 0 -92 120 -144 189 -82 40
37 192 275 258 407 161 318 257 654 282 987 8 107 6 385 -4 433 -2 14 -7 51
-10 83 -7 60 -8 67 -26 157 -48 239 -142 499 -246 680 -86 150 -124 208 -202
310 -94 122 -96 124 -211 240 -290 293 -657 513 -1070 641 -202 63 -274 72
-327 39z"/>
<path d="M10049 17786 c-36 -21 -63 -79 -55 -122 10 -50 61 -87 154 -108 301
-71 612 -258 814 -490 129 -149 231 -327 292 -509 21 -62 28 -86 42 -142 44
-180 44 -489 0 -680 -49 -207 -123 -376 -252 -579 -66 -103 -74 -128 -50 -174
23 -45 51 -63 98 -65 63 -3 90 19 164 134 407 627 417 1399 26 1984 -33 50
-73 106 -88 125 -36 43 -218 227 -259 260 -174 143 -375 251 -601 326 -154 50
-244 63 -285 40z"/>
<path d="M9543 16962 c-46 -2 -83 -7 -83 -12 0 -6 -13 -10 -30 -10 -16 0 -30
-4 -30 -10 0 -5 -11 -10 -25 -10 -14 0 -25 -4 -25 -10 0 -5 -9 -10 -20 -10
-11 0 -20 -4 -20 -10 0 -5 -7 -10 -16 -10 -25 0 -174 -124 -174 -145 0 -3 -9
-16 -21 -28 -11 -12 -23 -34 -26 -49 -3 -16 -9 -28 -14 -28 -5 0 -9 -9 -9 -20
0 -11 -4 -20 -10 -20 -7 0 -10 -834 -10 -2483 0 -1918 -3 -2486 -12 -2495 -9
-9 -110 -12 -394 -12 -339 0 -383 2 -388 16 -3 9 -6 84 -6 167 l0 152 -445 0
-445 0 -2 -165 -3 -165 -217 -3 c-208 -2 -218 -2 -228 18 -7 13 -10 124 -8
335 l3 315 -437 0 -438 0 0 -329 c0 -182 -4 -332 -9 -335 -4 -3 -160 -6 -344
-6 -201 -1 -339 -5 -342 -11 -4 -5 -19 -9 -36 -9 -16 0 -29 -4 -29 -10 0 -5
-11 -10 -25 -10 -14 0 -25 -4 -25 -10 0 -5 -4 -10 -10 -10 -19 0 -107 -91
-120 -125 -8 -19 -17 -35 -22 -35 -4 0 -8 -13 -8 -30 0 -16 -4 -30 -10 -30 -5
0 -10 -25 -10 -56 0 -34 -4 -53 -10 -49 -7 4 -10 -112 -10 -342 l0 -348 -167
-167 c-92 -93 -170 -168 -175 -168 -4 0 -8 -315 -8 -700 0 -385 4 -700 8 -700
5 0 83 -75 175 -167 l167 -168 0 -3027 c0 -2012 3 -3028 10 -3028 6 0 10 -22
10 -50 0 -27 5 -50 10 -50 6 0 10 -13 10 -30 0 -16 5 -30 10 -30 6 0 10 -7 10
-15 0 -29 41 -80 107 -135 7 -6 17 -10 23 -10 5 0 10 -4 10 -10 0 -5 12 -10
26 -10 14 0 23 -4 19 -10 -4 -6 8 -10 29 -10 20 0 36 -4 36 -10 0 -6 28 -10
65 -10 49 0 67 -4 71 -15 5 -13 275 -15 2345 -15 2072 0 2339 2 2339 15 0 12
14 15 70 15 40 0 70 4 70 10 0 6 14 10 30 10 17 0 30 5 30 10 0 6 9 10 20 10
11 0 20 5 20 10 0 6 8 10 18 10 22 1 112 92 112 114 0 9 5 16 10 16 6 0 10 9
10 20 0 11 5 20 10 20 6 0 10 14 10 30 0 17 5 30 10 30 6 0 10 30 10 70 0 54
4 72 15 76 13 5 15 498 15 4354 0 3856 -2 4349 -15 4354 -11 4 -15 22 -15 71
0 37 -4 65 -10 65 -5 0 -10 16 -10 36 0 21 -4 33 -10 29 -6 -4 -10 5 -10 19 0
14 -4 26 -10 26 -5 0 -10 7 -10 15 0 8 -4 15 -10 15 -5 0 -10 6 -10 13 0 15
-54 67 -70 67 -5 0 -10 5 -10 10 0 6 -7 10 -15 10 -8 0 -15 5 -15 10 0 6 -9
10 -19 10 -11 0 -23 5 -26 10 -3 6 -16 10 -28 10 -12 0 -30 7 -39 14 -17 13
-18 143 -18 2485 0 1641 -3 2471 -10 2471 -5 0 -10 11 -10 25 0 14 -4 25 -10
25 -5 0 -10 11 -10 25 0 14 -3 25 -8 25 -4 0 -13 15 -21 33 -19 42 -146 169
-188 188 -18 8 -33 17 -33 21 0 5 -9 8 -20 8 -11 0 -20 5 -20 10 0 6 -11 10
-25 10 -14 0 -25 5 -25 10 0 6 -16 10 -35 10 -19 0 -35 4 -35 9 0 11 -126 17
-247 13z m207 -212 c0 -5 14 -10 30 -10 17 0 30 -4 30 -10 0 -5 7 -10 15 -10
41 0 142 -85 166 -139 8 -17 17 -31 21 -31 5 0 8 -1159 8 -2575 l0 -2575 95 0
c57 0 95 -4 95 -10 0 -5 14 -10 30 -10 17 0 30 -4 30 -10 0 -5 5 -10 11 -10
14 0 39 -25 39 -39 0 -6 5 -11 10 -11 6 0 10 -14 10 -31 0 -17 4 -28 10 -24 7
4 10 -1480 10 -4444 0 -2961 -3 -4451 -10 -4451 -5 0 -10 -11 -10 -25 0 -32
-63 -95 -95 -95 -14 0 -25 -4 -25 -10 0 -7 -817 -10 -2430 -10 -1613 0 -2430
3 -2430 10 0 6 -13 10 -30 10 -16 0 -30 5 -30 10 0 6 -6 10 -14 10 -17 0 -46
43 -46 69 0 11 -4 23 -10 26 -13 8 -14 8888 -1 8913 5 9 17 34 27 55 10 20 24
37 31 37 7 0 13 5 13 10 0 6 13 10 29 10 17 0 33 5 36 10 4 6 157 10 425 10
l420 0 2 333 3 332 232 3 233 2 5 -22 c3 -13 4 -164 3 -336 l-3 -312 438 0
437 0 0 165 0 165 230 0 230 0 0 -165 0 -165 605 0 605 0 0 2558 0 2558 21 43
c23 48 112 141 134 141 8 0 15 5 15 10 0 6 9 10 20 10 11 0 20 5 20 10 0 6 16
10 35 10 19 0 35 5 35 10 0 6 47 10 120 10 73 0 120 -4 120 -10z m-4750 -7260
c0 -813 6 -758 -77 -679 l-43 40 0 639 0 639 43 40 c83 79 77 134 77 -679z"/>
<path d="M5738 11051 l-58 -57 0 -413 0 -413 55 -54 56 -54 1997 0 1997 0 58
56 57 56 0 408 0 407 -60 62 -59 61 -1993 -1 -1993 -1 -57 -57z m3950 -456 c1
-159 0 -300 -3 -313 l-5 -22 -1893 2 -1892 3 -3 313 -2 312 1897 -2 1898 -3 3
-290z"/>
<path d="M5738 9872 l-58 -58 0 -1832 0 -1833 59 -59 59 -60 1991 0 1991 0 60
59 60 59 0 1833 0 1833 -60 58 -61 58 -1992 0 -1992 -1 -57 -57z m3946 -158
c11 -29 7 -3444 -4 -3465 -11 -19 -42 -19 -1888 -19 -1447 0 -1881 3 -1890 12
-9 9 -12 410 -12 1743 0 953 3 1735 7 1738 3 4 856 7 1894 7 1711 0 1887 -1
1893 -16z"/>
<path d="M5750 5230 c0 -5 -7 -10 -16 -10 -27 0 -47 -30 -51 -78 -4 -39 0 -52
20 -74 13 -16 32 -28 41 -28 9 0 16 -4 16 -10 0 -7 682 -10 2025 -10 1343 0
2025 3 2025 10 0 6 7 10 15 10 19 0 55 31 55 47 0 7 5 13 10 13 6 0 10 16 10
35 0 19 -4 35 -10 35 -5 0 -10 5 -10 11 0 16 -26 39 -45 39 -9 0 -13 5 -10 10
4 7 -677 10 -2034 10 -1354 0 -2041 -3 -2041 -10z"/>
<path d="M5716 4205 c-21 -18 -30 -36 -33 -69 -5 -38 -2 -47 24 -75 l30 -31
2052 0 c1894 0 2054 1 2069 17 35 34 58 113 33 113 -5 0 -11 10 -15 23 -3 12
-18 28 -33 35 -21 9 -455 12 -2062 12 l-2036 0 -29 -25z"/>
<path d="M5760 3220 c0 -5 -9 -10 -19 -10 -30 0 -61 -47 -61 -92 0 -32 6 -46
31 -69 l31 -29 2040 0 c1909 0 2042 1 2069 17 16 10 29 25 29 35 0 10 5 18 10
18 17 0 11 51 -10 80 -46 65 119 60 -2102 60 -1339 0 -2018 -3 -2018 -10z"/>
<path d="M11389 12199 c-132 -20 -198 -117 -221 -325 -26 -240 38 -446 156
-504 55 -26 163 -30 217 -7 111 46 169 188 169 412 0 306 -113 455 -321 424z
m104 -83 c42 -17 83 -66 97 -114 41 -141 33 -391 -16 -491 -22 -44 -35 -57
-72 -73 -115 -51 -206 18 -233 176 -13 80 -7 321 10 377 34 111 124 163 214
125z"/>
<path d="M12059 12199 c-132 -20 -198 -117 -221 -325 -26 -240 38 -446 156
-504 55 -26 163 -30 217 -7 111 46 169 188 169 412 0 306 -113 455 -321 424z
m104 -83 c42 -17 83 -66 97 -114 41 -141 33 -391 -16 -491 -22 -44 -35 -57
-72 -73 -115 -51 -206 18 -233 176 -13 80 -7 321 10 377 34 111 124 163 214
125z"/>
<path d="M12729 12199 c-132 -20 -198 -117 -221 -325 -26 -240 38 -446 156
-504 55 -26 163 -30 217 -7 111 46 169 188 169 412 0 306 -113 455 -321 424z
m104 -83 c42 -17 83 -66 97 -114 41 -141 33 -391 -16 -491 -22 -44 -35 -57
-72 -73 -115 -51 -206 18 -233 176 -13 80 -7 321 10 377 34 111 124 163 214
125z"/>
<path d="M14069 12199 c-132 -20 -198 -117 -221 -325 -26 -240 38 -446 156
-504 55 -26 163 -30 217 -7 111 46 169 188 169 412 0 306 -113 455 -321 424z
m104 -83 c42 -17 83 -66 97 -114 41 -141 33 -391 -16 -491 -22 -44 -35 -57
-72 -73 -115 -51 -206 18 -233 176 -13 80 -7 321 10 377 34 111 124 163 214
125z"/>
<path d="M14739 12199 c-132 -20 -198 -117 -221 -325 -26 -240 38 -446 156
-504 55 -26 163 -30 217 -7 111 46 169 188 169 412 0 306 -113 455 -321 424z
m104 -83 c42 -17 83 -66 97 -114 41 -141 33 -391 -16 -491 -22 -44 -35 -57
-72 -73 -115 -51 -206 18 -233 176 -13 80 -7 321 10 377 34 111 124 163 214
125z"/>
<path d="M15409 12199 c-132 -20 -198 -117 -221 -325 -26 -240 38 -446 156
-504 55 -26 163 -30 217 -7 111 46 169 188 169 412 0 306 -113 455 -321 424z
m104 -83 c42 -17 83 -66 97 -114 41 -141 33 -391 -16 -491 -22 -44 -35 -57
-72 -73 -115 -51 -206 18 -233 176 -13 80 -7 321 10 377 34 111 124 163 214
125z"/>
<path d="M16749 12199 c-132 -20 -198 -117 -221 -325 -26 -240 38 -446 156
-504 55 -26 163 -30 217 -7 111 46 169 188 169 412 0 306 -113 455 -321 424z
m104 -83 c42 -17 83 -66 97 -114 41 -141 33 -391 -16 -491 -22 -44 -35 -57
-72 -73 -115 -51 -206 18 -233 176 -13 80 -7 321 10 377 34 111 124 163 214
125z"/>
<path d="M17419 12199 c-132 -20 -198 -117 -221 -325 -26 -240 38 -446 156
-504 55 -26 163 -30 217 -7 111 46 169 188 169 412 0 306 -113 455 -321 424z
m104 -83 c42 -17 83 -66 97 -114 41 -141 33 -391 -16 -491 -22 -44 -35 -57
-72 -73 -115 -51 -206 18 -233 176 -13 80 -7 321 10 377 34 111 124 163 214
125z"/>
<path d="M13341 12114 c-61 -48 -111 -91 -111 -97 0 -6 10 -21 21 -34 l22 -22
77 64 c43 36 80 65 81 65 2 0 3 -166 1 -370 l-3 -370 46 0 45 0 0 425 0 425
-34 0 c-27 0 -55 -17 -145 -86z"/>
<path d="M16021 12114 c-61 -48 -111 -91 -111 -97 0 -6 10 -21 21 -34 l22 -22
77 64 c43 36 80 65 81 65 2 0 3 -166 1 -370 l-3 -370 46 0 45 0 0 425 0 425
-34 0 c-27 0 -55 -17 -145 -86z"/>
<path d="M11389 10579 c-132 -20 -198 -117 -221 -325 -26 -240 38 -446 156
-504 55 -26 163 -30 217 -7 111 46 169 188 169 412 0 306 -113 455 -321 424z
m104 -83 c42 -17 83 -66 97 -114 41 -141 33 -391 -16 -491 -22 -44 -35 -57
-72 -73 -115 -51 -206 18 -233 176 -13 80 -7 321 10 377 34 111 124 163 214
125z"/>
<path d="M12729 10579 c-132 -20 -198 -117 -221 -325 -26 -240 38 -446 156
-504 55 -26 163 -30 217 -7 111 46 169 188 169 412 0 306 -113 455 -321 424z
m104 -83 c42 -17 83 -66 97 -114 41 -141 33 -391 -16 -491 -22 -44 -35 -57
-72 -73 -115 -51 -206 18 -233 176 -13 80 -7 321 10 377 34 111 124 163 214
125z"/>
<path d="M13399 10579 c-132 -20 -198 -117 -221 -325 -26 -240 38 -446 156
-504 55 -26 163 -30 217 -7 111 46 169 188 169 412 0 306 -113 455 -321 424z
m104 -83 c42 -17 83 -66 97 -114 41 -141 33 -391 -16 -491 -22 -44 -35 -57
-72 -73 -115 -51 -206 18 -233 176 -13 80 -7 321 10 377 34 111 124 163 214
125z"/>
<path d="M15409 10579 c-132 -20 -198 -117 -221 -325 -26 -240 38 -446 156
-504 55 -26 163 -30 217 -7 111 46 169 188 169 412 0 306 -113 455 -321 424z
m104 -83 c42 -17 83 -66 97 -114 41 -141 33 -391 -16 -491 -22 -44 -35 -57
-72 -73 -115 -51 -206 18 -233 176 -13 80 -7 321 10 377 34 111 124 163 214
125z"/>
<path d="M16749 10579 c-132 -20 -198 -117 -221 -325 -26 -240 38 -446 156
-504 55 -26 163 -30 217 -7 111 46 169 188 169 412 0 306 -113 455 -321 424z
m104 -83 c42 -17 83 -66 97 -114 41 -141 33 -391 -16 -491 -22 -44 -35 -57
-72 -73 -115 -51 -206 18 -233 176 -13 80 -7 321 10 377 34 111 124 163 214
125z"/>
<path d="M12001 10494 c-61 -48 -111 -91 -111 -97 0 -6 10 -21 21 -34 l22 -22
77 64 c43 36 80 65 81 65 2 0 3 -166 1 -370 l-3 -370 46 0 45 0 0 425 0 425
-34 0 c-27 0 -55 -17 -145 -86z"/>
<path d="M14011 10494 c-61 -48 -111 -91 -111 -97 0 -6 10 -21 21 -34 l22 -22
77 64 c43 36 80 65 81 65 2 0 3 -166 1 -370 l-3 -370 46 0 45 0 0 425 0 425
-34 0 c-27 0 -55 -17 -145 -86z"/>
<path d="M14681 10494 c-61 -48 -111 -91 -111 -97 0 -6 10 -21 21 -34 l22 -22
77 64 c43 36 80 65 81 65 2 0 3 -166 1 -370 l-3 -370 46 0 45 0 0 425 0 425
-34 0 c-27 0 -55 -17 -145 -86z"/>
<path d="M16021 10494 c-61 -48 -111 -91 -111 -97 0 -6 10 -21 21 -34 l22 -22
77 64 c43 36 80 65 81 65 2 0 3 -166 1 -370 l-3 -370 46 0 45 0 0 425 0 425
-34 0 c-27 0 -55 -17 -145 -86z"/>
<path d="M17361 10494 c-61 -48 -111 -91 -111 -97 0 -6 10 -21 21 -34 l22 -22
77 64 c43 36 80 65 81 65 2 0 3 -166 1 -370 l-3 -370 46 0 45 0 0 425 0 425
-34 0 c-27 0 -55 -17 -145 -86z"/>
<path d="M11389 8959 c-132 -20 -198 -117 -221 -325 -26 -240 38 -446 156
-504 55 -26 163 -30 217 -7 111 46 169 188 169 412 0 306 -113 455 -321 424z
m104 -83 c42 -17 83 -66 97 -114 41 -141 33 -391 -16 -491 -22 -44 -35 -57
-72 -73 -115 -51 -206 18 -233 176 -13 80 -7 321 10 377 34 111 124 163 214
125z"/>
<path d="M12729 8959 c-132 -20 -198 -117 -221 -325 -26 -240 38 -446 156
-504 55 -26 163 -30 217 -7 111 46 169 188 169 412 0 306 -113 455 -321 424z
m104 -83 c42 -17 83 -66 97 -114 41 -141 33 -391 -16 -491 -22 -44 -35 -57
-72 -73 -115 -51 -206 18 -233 176 -13 80 -7 321 10 377 34 111 124 163 214
125z"/>
<path d="M13399 8959 c-132 -20 -198 -117 -221 -325 -26 -240 38 -446 156
-504 55 -26 163 -30 217 -7 111 46 169 188 169 412 0 306 -113 455 -321 424z
m104 -83 c42 -17 83 -66 97 -114 41 -141 33 -391 -16 -491 -22 -44 -35 -57
-72 -73 -115 -51 -206 18 -233 176 -13 80 -7 321 10 377 34 111 124 163 214
125z"/>
<path d="M14739 8959 c-132 -20 -198 -117 -221 -325 -26 -240 38 -446 156
-504 55 -26 163 -30 217 -7 111 46 169 188 169 412 0 306 -113 455 -321 424z
m104 -83 c42 -17 83 -66 97 -114 41 -141 33 -391 -16 -491 -22 -44 -35 -57
-72 -73 -115 -51 -206 18 -233 176 -13 80 -7 321 10 377 34 111 124 163 214
125z"/>
<path d="M15409 8959 c-132 -20 -198 -117 -221 -325 -26 -240 38 -446 156
-504 55 -26 163 -30 217 -7 111 46 169 188 169 412 0 306 -113 455 -321 424z
m104 -83 c42 -17 83 -66 97 -114 41 -141 33 -391 -16 -491 -22 -44 -35 -57
-72 -73 -115 -51 -206 18 -233 176 -13 80 -7 321 10 377 34 111 124 163 214
125z"/>
<path d="M16749 8959 c-132 -20 -198 -117 -221 -325 -26 -240 38 -446 156
-504 55 -26 163 -30 217 -7 111 46 169 188 169 412 0 306 -113 455 -321 424z
m104 -83 c42 -17 83 -66 97 -114 41 -141 33 -391 -16 -491 -22 -44 -35 -57
-72 -73 -115 -51 -206 18 -233 176 -13 80 -7 321 10 377 34 111 124 163 214
125z"/>
<path d="M17419 8959 c-132 -20 -198 -117 -221 -325 -26 -240 38 -446 156
-504 55 -26 163 -30 217 -7 111 46 169 188 169 412 0 306 -113 455 -321 424z
m104 -83 c42 -17 83 -66 97 -114 41 -141 33 -391 -16 -491 -22 -44 -35 -57
-72 -73 -115 -51 -206 18 -233 176 -13 80 -7 321 10 377 34 111 124 163 214
125z"/>
<path d="M12001 8874 c-61 -48 -111 -91 -111 -97 0 -6 10 -21 21 -34 l22 -22
77 64 c43 36 80 65 81 65 2 0 3 -166 1 -370 l-3 -370 46 0 45 0 0 425 0 425
-34 0 c-27 0 -55 -17 -145 -86z"/>
<path d="M14011 8874 c-61 -48 -111 -91 -111 -97 0 -6 10 -21 21 -34 l22 -22
77 64 c43 36 80 65 81 65 2 0 3 -166 1 -370 l-3 -370 46 0 45 0 0 425 0 425
-34 0 c-27 0 -55 -17 -145 -86z"/>
<path d="M16021 8874 c-61 -48 -111 -91 -111 -97 0 -6 10 -21 21 -34 l22 -22
77 64 c43 36 80 65 81 65 2 0 3 -166 1 -370 l-3 -370 46 0 45 0 0 425 0 425
-34 0 c-27 0 -55 -17 -145 -86z"/>
<path d="M12059 7339 c-132 -20 -198 -117 -221 -325 -26 -240 38 -446 156
-504 55 -26 163 -30 217 -7 111 46 169 188 169 412 0 306 -113 455 -321 424z
m104 -83 c42 -17 83 -66 97 -114 41 -141 33 -391 -16 -491 -22 -44 -35 -57
-72 -73 -115 -51 -206 18 -233 176 -13 80 -7 321 10 377 34 111 124 163 214
125z"/>
<path d="M12729 7339 c-132 -20 -198 -117 -221 -325 -26 -240 38 -446 156
-504 55 -26 163 -30 217 -7 111 46 169 188 169 412 0 306 -113 455 -321 424z
m104 -83 c42 -17 83 -66 97 -114 41 -141 33 -391 -16 -491 -22 -44 -35 -57
-72 -73 -115 -51 -206 18 -233 176 -13 80 -7 321 10 377 34 111 124 163 214
125z"/>
<path d="M13399 7339 c-132 -20 -198 -117 -221 -325 -26 -240 38 -446 156
-504 55 -26 163 -30 217 -7 111 46 169 188 169 412 0 306 -113 455 -321 424z
m104 -83 c42 -17 83 -66 97 -114 41 -141 33 -391 -16 -491 -22 -44 -35 -57
-72 -73 -115 -51 -206 18 -233 176 -13 80 -7 321 10 377 34 111 124 163 214
125z"/>
<path d="M14069 7339 c-132 -20 -198 -117 -221 -325 -26 -240 38 -446 156
-504 55 -26 163 -30 217 -7 111 46 169 188 169 412 0 306 -113 455 -321 424z
m104 -83 c42 -17 83 -66 97 -114 41 -141 33 -391 -16 -491 -22 -44 -35 -57
-72 -73 -115 -51 -206 18 -233 176 -13 80 -7 321 10 377 34 111 124 163 214
125z"/>
<path d="M15409 7339 c-132 -20 -198 -117 -221 -325 -26 -240 38 -446 156
-504 55 -26 163 -30 217 -7 111 46 169 188 169 412 0 306 -113 455 -321 424z
m104 -83 c42 -17 83 -66 97 -114 41 -141 33 -391 -16 -491 -22 -44 -35 -57
-72 -73 -115 -51 -206 18 -233 176 -13 80 -7 321 10 377 34 111 124 163 214
125z"/>
<path d="M16749 7339 c-132 -20 -198 -117 -221 -325 -26 -240 38 -446 156
-504 55 -26 163 -30 217 -7 111 46 169 188 169 412 0 306 -113 455 -321 424z
m104 -83 c42 -17 83 -66 97 -114 41 -141 33 -391 -16 -491 -22 -44 -35 -57
-72 -73 -115 -51 -206 18 -233 176 -13 80 -7 321 10 377 34 111 124 163 214
125z"/>
<path d="M11331 7254 c-61 -48 -111 -91 -111 -97 0 -6 10 -21 21 -34 l22 -22
77 64 c43 36 80 65 81 65 2 0 3 -166 1 -370 l-3 -370 46 0 45 0 0 425 0 425
-34 0 c-27 0 -55 -17 -145 -86z"/>
<path d="M14681 7254 c-61 -48 -111 -91 -111 -97 0 -6 10 -21 21 -34 l22 -22
77 64 c43 36 80 65 81 65 2 0 3 -166 1 -370 l-3 -370 46 0 45 0 0 425 0 425
-34 0 c-27 0 -55 -17 -145 -86z"/>
<path d="M16021 7254 c-61 -48 -111 -91 -111 -97 0 -6 10 -21 21 -34 l22 -22
77 64 c43 36 80 65 81 65 2 0 3 -166 1 -370 l-3 -370 46 0 45 0 0 425 0 425
-34 0 c-27 0 -55 -17 -145 -86z"/>
<path d="M17361 7254 c-61 -48 -111 -91 -111 -97 0 -6 10 -21 21 -34 l22 -22
77 64 c43 36 80 65 81 65 2 0 3 -166 1 -370 l-3 -370 46 0 45 0 0 425 0 425
-34 0 c-27 0 -55 -17 -145 -86z"/>
<path d="M11389 5719 c-132 -20 -198 -117 -221 -325 -26 -240 38 -446 156
-504 55 -26 163 -30 217 -7 111 46 169 188 169 412 0 306 -113 455 -321 424z
m104 -83 c42 -17 83 -66 97 -114 41 -141 33 -391 -16 -491 -22 -44 -35 -57
-72 -73 -115 -51 -206 18 -233 176 -13 80 -7 321 10 377 34 111 124 163 214
125z"/>
<path d="M12729 5719 c-132 -20 -198 -117 -221 -325 -26 -240 38 -446 156
-504 55 -26 163 -30 217 -7 111 46 169 188 169 412 0 306 -113 455 -321 424z
m104 -83 c42 -17 83 -66 97 -114 41 -141 33 -391 -16 -491 -22 -44 -35 -57
-72 -73 -115 -51 -206 18 -233 176 -13 80 -7 321 10 377 34 111 124 163 214
125z"/>
<path d="M14069 5719 c-132 -20 -198 -117 -221 -325 -26 -240 38 -446 156
-504 55 -26 163 -30 217 -7 111 46 169 188 169 412 0 306 -113 455 -321 424z
m104 -83 c42 -17 83 -66 97 -114 41 -141 33 -391 -16 -491 -22 -44 -35 -57
-72 -73 -115 -51 -206 18 -233 176 -13 80 -7 321 10 377 34 111 124 163 214
125z"/>
<path d="M14739 5719 c-132 -20 -198 -117 -221 -325 -26 -240 38 -446 156
-504 55 -26 163 -30 217 -7 111 46 169 188 169 412 0 306 -113 455 -321 424z
m104 -83 c42 -17 83 -66 97 -114 41 -141 33 -391 -16 -491 -22 -44 -35 -57
-72 -73 -115 -51 -206 18 -233 176 -13 80 -7 321 10 377 34 111 124 163 214
125z"/>
<path d="M15409 5719 c-132 -20 -198 -117 -221 -325 -26 -240 38 -446 156
-504 55 -26 163 -30 217 -7 111 46 169 188 169 412 0 306 -113 455 -321 424z
m104 -83 c42 -17 83 -66 97 -114 41 -141 33 -391 -16 -491 -22 -44 -35 -57
-72 -73 -115 -51 -206 18 -233 176 -13 80 -7 321 10 377 34 111 124 163 214
125z"/>
<path d="M16079 5719 c-132 -20 -198 -117 -221 -325 -26 -240 38 -446 156
-504 55 -26 163 -30 217 -7 111 46 169 188 169 412 0 306 -113 455 -321 424z
m104 -83 c42 -17 83 -66 97 -114 41 -141 33 -391 -16 -491 -22 -44 -35 -57
-72 -73 -115 -51 -206 18 -233 176 -13 80 -7 321 10 377 34 111 124 163 214
125z"/>
<path d="M17419 5719 c-132 -20 -198 -117 -221 -325 -26 -240 38 -446 156
-504 55 -26 163 -30 217 -7 111 46 169 188 169 412 0 306 -113 455 -321 424z
m104 -83 c42 -17 83 -66 97 -114 41 -141 33 -391 -16 -491 -22 -44 -35 -57
-72 -73 -115 -51 -206 18 -233 176 -13 80 -7 321 10 377 34 111 124 163 214
125z"/>
<path d="M12001 5634 c-61 -48 -111 -91 -111 -97 0 -6 10 -21 21 -34 l22 -22
77 64 c43 36 80 65 81 65 2 0 3 -166 1 -370 l-3 -370 46 0 45 0 0 425 0 425
-34 0 c-27 0 -55 -17 -145 -86z"/>
<path d="M13341 5634 c-61 -48 -111 -91 -111 -97 0 -6 10 -21 21 -34 l22 -22
77 64 c43 36 80 65 81 65 2 0 3 -166 1 -370 l-3 -370 46 0 45 0 0 425 0 425
-34 0 c-27 0 -55 -17 -145 -86z"/>
<path d="M16691 5634 c-61 -48 -111 -91 -111 -97 0 -6 10 -21 21 -34 l22 -22
77 64 c43 36 80 65 81 65 2 0 3 -166 1 -370 l-3 -370 46 0 45 0 0 425 0 425
-34 0 c-27 0 -55 -17 -145 -86z"/>
</g>
</svg>
